<?xml version="1.0" encoding="UTF-8" standalone="no"?>
<svg
   xmlns:svg="http://www.w3.org/2000/svg"
   xmlns="http://www.w3.org/2000/svg"
   xmlns:sodipodi="http://sodipodi.sourceforge.net/DTD/sodipodi-0.dtd"
   xmlns:inkscape="http://www.inkscape.org/namespaces/inkscape"
   version="1.1"
   id="svg40"
   xml:space="preserve"
   width="574.54425"
   height="151.86293"
   viewBox="0 0 574.54425 151.86293"
   sodipodi:docname="dependencies.svg"
   inkscape:version="1.1-dev (2e60fb975d, 2020-06-03)"><defs
     id="defs44"><clipPath
       clipPathUnits="userSpaceOnUse"
       id="clipPath148"><path
         d="M 0,0 H 612 V 803.25 H 0 Z"
         id="path146" /></clipPath></defs><sodipodi:namedview
     pagecolor="#ffffff"
     bordercolor="#666666"
     borderopacity="1"
     objecttolerance="10"
     gridtolerance="10"
     guidetolerance="10"
     inkscape:pageopacity="0"
     inkscape:pageshadow="2"
     inkscape:window-width="2048"
     inkscape:window-height="1088"
     id="namedview42"
     showgrid="false"
     inkscape:zoom="0.81979458"
     inkscape:cx="329.48082"
     inkscape:cy="97.126358"
     inkscape:window-x="0"
     inkscape:window-y="0"
     inkscape:window-maximized="1"
     inkscape:current-layer="g46" /><g
     id="g46"
     inkscape:groupmode="layer"
     inkscape:label="Note Jun 8, 2020"
     transform="matrix(1.3333333,0,0,-1.3333333,-78.519183,632.62636)"><g
       id="g48" /><g
       id="g50"
       transform="translate(-53.844711,-289.15042)"><g
         id="g52"
         transform="matrix(1.048304,0,0,1.048304,15.9375,803.25)"><text
           transform="matrix(1,0,0,-1,0,-11.424)"
           style="font-variant:normal;font-weight:normal;font-size:12px;font-family:HelveticaNeue;-inkscape-font-specification:HelveticaNeue;writing-mode:lr-tb;fill:#000000;fill-opacity:1;fill-rule:nonzero;stroke:none"
           id="text56"><tspan
             x="0"
             y="0"
             id="tspan54" /></text></g><g
         id="g58"
         transform="matrix(1.048304,0,0,1.048304,15.9375,803.25)"><text
           transform="matrix(1,0,0,-1,0,-25.74)"
           style="font-variant:normal;font-weight:normal;font-size:12px;font-family:HelveticaNeue;-inkscape-font-specification:HelveticaNeue;writing-mode:lr-tb;fill:#000000;fill-opacity:1;fill-rule:nonzero;stroke:none"
           id="text62"><tspan
             x="0"
             y="0"
             id="tspan60" /></text></g><g
         id="g64"
         transform="matrix(1.048304,0,0,1.048304,15.9375,803.25)"><text
           transform="matrix(1,0,0,-1,0,-40.056)"
           style="font-variant:normal;font-weight:normal;font-size:12px;font-family:HelveticaNeue;-inkscape-font-specification:HelveticaNeue;writing-mode:lr-tb;fill:#000000;fill-opacity:1;fill-rule:nonzero;stroke:none"
           id="text68"><tspan
             x="0"
             y="0"
             id="tspan66" /></text></g><g
         id="g70"
         transform="matrix(1.048304,0,0,1.048304,15.9375,803.25)"><text
           transform="matrix(1,0,0,-1,0,-54.372)"
           style="font-variant:normal;font-weight:normal;font-size:12px;font-family:HelveticaNeue;-inkscape-font-specification:HelveticaNeue;writing-mode:lr-tb;fill:#000000;fill-opacity:1;fill-rule:nonzero;stroke:none"
           id="text74"><tspan
             x="0"
             y="0"
             id="tspan72" /></text></g><g
         id="g76"
         transform="matrix(1.048304,0,0,1.048304,15.9375,803.25)"><text
           transform="matrix(1,0,0,-1,0,-68.688)"
           style="font-variant:normal;font-weight:normal;font-size:12px;font-family:HelveticaNeue;-inkscape-font-specification:HelveticaNeue;writing-mode:lr-tb;fill:#000000;fill-opacity:1;fill-rule:nonzero;stroke:none"
           id="text80"><tspan
             x="0"
             y="0"
             id="tspan78" /></text></g><g
         id="g82"
         transform="matrix(1.048304,0,0,1.048304,15.9375,803.25)"><text
           transform="matrix(1,0,0,-1,0,-140.268)"
           style="font-variant:normal;font-weight:normal;font-size:12px;font-family:HelveticaNeue;-inkscape-font-specification:HelveticaNeue;writing-mode:lr-tb;fill:#000000;fill-opacity:1;fill-rule:nonzero;stroke:none"
           id="text86"><tspan
             x="0"
             y="0"
             id="tspan84" /></text></g><g
         id="g88"
         transform="matrix(1.048304,0,0,1.048304,15.9375,803.25)"><text
           transform="matrix(1,0,0,-1,0,-154.584)"
           style="font-variant:normal;font-weight:normal;font-size:12px;font-family:HelveticaNeue;-inkscape-font-specification:HelveticaNeue;writing-mode:lr-tb;fill:#000000;fill-opacity:1;fill-rule:nonzero;stroke:none"
           id="text92"><tspan
             x="0"
             y="0"
             id="tspan90" /></text></g><g
         id="g94"
         transform="matrix(1.048304,0,0,1.048304,15.9375,803.25)"><text
           transform="matrix(1,0,0,-1,0,-168.9)"
           style="font-variant:normal;font-weight:normal;font-size:12px;font-family:HelveticaNeue;-inkscape-font-specification:HelveticaNeue;writing-mode:lr-tb;fill:#000000;fill-opacity:1;fill-rule:nonzero;stroke:none"
           id="text98"><tspan
             x="0"
             y="0"
             id="tspan96" /></text></g><g
         id="g100"
         transform="matrix(1.048304,0,0,1.048304,15.9375,803.25)"><text
           transform="matrix(1,0,0,-1,0,-183.216)"
           style="font-variant:normal;font-weight:normal;font-size:12px;font-family:HelveticaNeue;-inkscape-font-specification:HelveticaNeue;writing-mode:lr-tb;fill:#000000;fill-opacity:1;fill-rule:nonzero;stroke:none"
           id="text104"><tspan
             x="0"
             y="0"
             id="tspan102" /></text></g><g
         id="g106"
         transform="matrix(1.048304,0,0,1.048304,15.9375,803.25)"><text
           transform="matrix(1,0,0,-1,0,-197.532)"
           style="font-variant:normal;font-weight:normal;font-size:12px;font-family:HelveticaNeue;-inkscape-font-specification:HelveticaNeue;writing-mode:lr-tb;fill:#000000;fill-opacity:1;fill-rule:nonzero;stroke:none"
           id="text110"><tspan
             x="0"
             y="0"
             id="tspan108" /></text></g><g
         id="g112"
         transform="matrix(1.048304,0,0,1.048304,15.9375,803.25)"><text
           transform="matrix(1,0,0,-1,0,-211.848)"
           style="font-variant:normal;font-weight:normal;font-size:12px;font-family:HelveticaNeue;-inkscape-font-specification:HelveticaNeue;writing-mode:lr-tb;fill:#000000;fill-opacity:1;fill-rule:nonzero;stroke:none"
           id="text116"><tspan
             x="0"
             y="0"
             id="tspan114" /></text></g><g
         id="g118"
         transform="matrix(1.048304,0,0,1.048304,473.6378,721.1998)"><text
           transform="matrix(1,0,0,-1,0,-19.04)"
           style="font-variant:normal;font-weight:normal;font-size:20px;font-family:HelveticaNeue;-inkscape-font-specification:HelveticaNeue;writing-mode:lr-tb;fill:#120377;fill-opacity:1;fill-rule:nonzero;stroke:none"
           id="text122"><tspan
             x="0 11.48"
             y="0"
             sodipodi:role="line"
             id="tspan120">TB</tspan></text></g><g
         id="g124"
         transform="matrix(1.048304,0,0,1.048304,358.544,720.7765)"><text
           transform="matrix(1,0,0,-1,0,-19.04)"
           style="font-variant:normal;font-weight:normal;font-size:20px;font-family:HelveticaNeue;-inkscape-font-specification:HelveticaNeue;writing-mode:lr-tb;fill:#120377;fill-opacity:1;fill-rule:nonzero;stroke:none"
           id="text128"><tspan
             x="0 14.08"
             y="0"
             sodipodi:role="line"
             id="tspan126">DB</tspan></text></g><g
         id="g130"
         transform="matrix(1.048304,0,0,1.048304,154.4045,720.8438)"><text
           transform="matrix(1,0,0,-1,0,-19.04)"
           style="font-variant:normal;font-weight:normal;font-size:20px;font-family:HelveticaNeue;-inkscape-font-specification:HelveticaNeue;writing-mode:lr-tb;fill:#120377;fill-opacity:1;fill-rule:nonzero;stroke:none"
           id="text134"><tspan
             x="0 14.08"
             y="0"
             sodipodi:role="line"
             id="tspan132">DR</tspan></text></g><g
         id="g136"
         transform="matrix(1.048304,0,0,1.048304,270.4515,720.8438)"><text
           transform="matrix(1,0,0,-1,0,-19.04)"
           style="font-variant:normal;font-weight:normal;font-size:20px;font-family:HelveticaNeue;-inkscape-font-specification:HelveticaNeue;writing-mode:lr-tb;fill:#120377;fill-opacity:1;fill-rule:nonzero;stroke:none"
           id="text140"><tspan
             x="0 11.48"
             y="0"
             sodipodi:role="line"
             id="tspan138">TR</tspan></text></g></g><g
       id="g142"
       transform="translate(-53.844711,-289.15042)"><g
         id="g144"
         clip-path="url(#clipPath148)"><path
           d="m 431.3389,706.6716 c 0,-20.9913 -11.3572,-39.3302 -28.2623,-49.2065 -8.4242,-4.9215 -18.2258,-7.7421 -28.6863,-7.7421 -20.9913,0 -39.3302,11.3572 -49.2065,28.2623 -4.9215,8.4242 -7.742,18.2258 -7.742,28.6863 0,20.9913 11.3571,39.3302 28.2623,49.2065 8.4241,4.9215 18.2258,7.7421 28.6862,7.7421 20.9914,0 39.3302,-11.3572 49.2065,-28.2623 4.9216,-8.4242 7.7421,-18.2258 7.7421,-28.6863 m -1.5937,0 c 0,10.1672 -2.7409,19.6942 -7.5245,27.8823 -9.6001,16.4324 -27.4259,27.4725 -47.8304,27.4725 -10.1671,0 -19.6942,-2.7408 -27.8823,-7.5244 -16.4324,-9.6001 -27.4725,-27.4259 -27.4725,-47.8304 0,-10.1672 2.7408,-19.6943 7.5245,-27.8823 9.6001,-16.4324 27.4258,-27.4725 47.8303,-27.4725 10.1672,0 19.6943,2.7408 27.8823,7.5244 16.4324,9.6001 27.4726,27.4259 27.4726,47.8304"
           style="fill:#000000;fill-opacity:1;fill-rule:nonzero;stroke:none"
           id="path150" /><path
           d="m 543.6423,706.6716 c 0,-20.9913 -11.3571,-39.3302 -28.2623,-49.2065 -8.4242,-4.9215 -18.2258,-7.7421 -28.6863,-7.7421 -20.9913,0 -39.3301,11.3572 -49.2065,28.2623 -4.9215,8.4242 -7.742,18.2258 -7.742,28.6863 0,20.9913 11.3571,39.3302 28.2623,49.2065 8.4241,4.9215 18.2258,7.7421 28.6862,7.7421 20.9914,0 39.3302,-11.3572 49.2065,-28.2623 4.9216,-8.4242 7.7421,-18.2258 7.7421,-28.6863 m -1.5937,0 c 0,10.1672 -2.7409,19.6942 -7.5245,27.8823 -9.6001,16.4324 -27.4259,27.4725 -47.8304,27.4725 -10.1671,0 -19.6942,-2.7408 -27.8823,-7.5244 -16.4324,-9.6001 -27.4725,-27.4259 -27.4725,-47.8304 0,-10.1672 2.7408,-19.6943 7.5245,-27.8823 9.6001,-16.4324 27.4258,-27.4725 47.8303,-27.4725 10.1672,0 19.6943,2.7408 27.8823,7.5244 16.4324,9.6001 27.4726,27.4259 27.4726,47.8304"
           style="fill:#000000;fill-opacity:1;fill-rule:nonzero;stroke:none"
           id="path152" /><path
           d="m 281.9861,763.6202 c 20.9913,0 39.3302,-11.3572 49.2065,-28.2623 4.9215,-8.4242 7.7421,-18.2258 7.7421,-28.6863 0,-20.9913 -11.3572,-39.3302 -28.2624,-49.2065 -8.4241,-4.9215 -18.2258,-7.7421 -28.6862,-7.7421 -20.9913,0 -39.3302,11.3572 -49.2065,28.2623 -4.9216,8.4242 -7.7421,18.2258 -7.7421,28.6863 0,20.9913 11.3572,39.3302 28.2623,49.2065 8.4242,4.9215 18.2258,7.7421 28.6863,7.7421 m 0,-1.5938 c -10.1672,0 -19.6943,-2.7408 -27.8823,-7.5244 -16.4324,-9.6001 -27.4726,-27.4259 -27.4726,-47.8304 0,-10.1672 2.7409,-19.6943 7.5245,-27.8823 9.6001,-16.4324 27.4259,-27.4725 47.8304,-27.4725 10.1672,0 19.6942,2.7408 27.8823,7.5244 16.4324,9.6001 27.4725,27.4259 27.4725,47.8304 0,10.1672 -2.7408,19.6942 -7.5244,27.8823 -9.6002,16.4324 -27.4259,27.4725 -47.8304,27.4725"
           style="fill:#000000;fill-opacity:1;fill-rule:nonzero;stroke:none"
           id="path154" /><path
           d="m 169.6827,763.6202 c 20.9913,0 39.3302,-11.3572 49.2065,-28.2623 4.9215,-8.4242 7.742,-18.2258 7.742,-28.6863 0,-20.9913 -11.3571,-39.3302 -28.2623,-49.2065 -8.4241,-4.9215 -18.2258,-7.7421 -28.6862,-7.7421 -20.9913,0 -39.3302,11.3572 -49.2065,28.2623 -4.9216,8.4242 -7.7421,18.2258 -7.7421,28.6863 0,20.9913 11.3572,39.3302 28.2623,49.2065 8.4242,4.9215 18.2258,7.7421 28.6863,7.7421 m 0,-1.5938 c -10.1672,0 -19.6943,-2.7408 -27.8823,-7.5244 -16.4324,-9.6001 -27.4726,-27.4259 -27.4726,-47.8304 0,-10.1672 2.7409,-19.6943 7.5245,-27.8823 9.6001,-16.4324 27.4259,-27.4725 47.8304,-27.4725 10.1672,0 19.6942,2.7408 27.8823,7.5244 16.4324,9.6001 27.4725,27.4259 27.4725,47.8304 0,10.1672 -2.7408,19.6942 -7.5244,27.8823 -9.6002,16.4324 -27.4259,27.4725 -47.8304,27.4725"
           style="fill:#000000;fill-opacity:1;fill-rule:nonzero;stroke:none"
           id="path156" /></g></g></g></svg>
